<svg width="260" height="102" viewBox="0 0 260 102" fill="none" xmlns="http://www.w3.org/2000/svg">
<path d="M111.578 102V88.7572C103.211 88.7349 95.8998 85.5602 90.4454 80.1274V87.6617H40.9262L38.0278 77.534C37.9696 77.7501 35.3188 87.6617 35.3188 87.6617H25.3786H0V71.2666L0.881151 69.4184C1.33993 67.9205 2.4177 64.4254 4.89366 56.511L15.3073 22.9532H22.422L16.1884 1.13275H54.4056L59.4813 17.4906H83.2505C85.224 16.9988 87.3941 16.7305 89.79 16.7305C90.977 16.7305 93.2927 16.8125 95.5065 17.3788L100.065 18.5488C103.532 17.1478 107.347 16.3951 111.411 16.3951C114.302 16.3951 117.018 16.7677 119.523 17.4906H128.917V0H167.004V18.8916C171.118 17.267 175.684 16.3877 180.578 16.3877C185.144 16.3877 189.426 17.1553 193.329 18.5787V17.4832H223.069C225.553 16.7528 228.269 16.3877 231.218 16.3877C248.12 16.4026 259.015 28.1549 259.015 46.3237V87.6543H193.329V86.5588C189.433 87.9822 185.151 88.7498 180.578 88.7498C175.589 88.7498 170.936 87.8331 166.756 86.1414V87.6468H149.242V101.985H111.586L111.578 102Z" fill="white"/>
<path d="M34.8755 36.2555L25.3867 74.3369L13.0215 74.3294L24.8333 36.2555H34.8755Z" fill="#212121"/>
<path d="M124.592 88.6752V64.0304H123.959C122.102 73.5842 116.065 75.4324 111.652 75.4324C100.277 75.4324 93.1914 65.9829 93.1914 53.0829V51.9874C93.1914 39.1694 100.117 29.7198 111.404 29.7198C117.376 29.7198 122.677 32.1344 124.374 40.6301H125.073L125.495 30.8153H136.208V88.6827H124.585L124.592 88.6752ZM125.007 53.0829V51.9874C125.007 43.4694 121.548 38.7446 114.951 38.7446C108.353 38.7446 104.894 43.4694 104.894 51.9874V53.0829C104.894 61.6009 108.44 66.3257 114.951 66.3257C121.461 66.3257 125.007 61.6009 125.007 53.0829Z" fill="#212121"/>
<path d="M65.8828 74.3369V30.8153H77.0101L77.2067 41.8H77.9131C80.1269 32.589 83.8554 30.0552 89.7831 30.0552C90.606 30.0552 91.6765 30.1371 92.3392 30.3086V41.6137C91.5163 41.5318 90.1982 41.4423 89.1277 41.4423C81.4595 41.4423 77.4252 45.6603 77.4252 53.3362V74.3369H65.8828Z" fill="#212121"/>
<path d="M158.725 53.0829V51.9874C158.725 38.8266 167.376 29.7198 180.564 29.7198C193.752 29.7198 202.403 38.8266 202.403 52.0694V53.0829C202.403 66.3257 193.752 75.4324 180.564 75.4324C167.376 75.4324 158.725 66.3257 158.725 53.0829ZM190.708 53.0829V52.0694C190.708 43.5514 187.329 38.9086 180.571 38.9086C173.813 38.9086 170.434 43.5439 170.434 51.9799V53.0754C170.434 61.5935 173.813 66.2362 180.571 66.2362C187.329 66.2362 190.708 61.6009 190.708 53.0754V53.0829Z" fill="#212121"/>
<path d="M206.335 74.3369V30.8153H217.463L218.023 40.4736H218.723C221.104 32.0524 224.927 29.7198 231.226 29.7198C241.778 29.7273 245.98 36.5536 245.98 46.3385V74.3444H234.525V49.2897C234.525 42.9626 232.384 39.2514 226.857 39.2514C221.33 39.2514 217.87 43.298 217.87 50.2137V74.3369H206.328H206.335Z" fill="#212121"/>
<path d="M63.4648 74.3369H50.6845L33.5566 14.45H44.8805L63.4648 74.3369Z" fill="#212121"/>
<path d="M40.1546 50.8248V52.0768C34.0229 53.0829 29.8284 58.8286 28.8598 62.1524C26.0707 71.7361 25.3789 74.3369 25.3789 74.3369H13.0137C13.0137 74.3369 13.436 72.8837 17.4704 59.9688C19.4293 53.7014 24.3011 51.026 32.0349 51.026L40.1546 50.8248Z" fill="#212121"/>
<path d="M141.932 27.8418C145.74 25.4571 149.796 24.7193 153.976 24.7193V13.3247H141.932V27.8418Z" fill="#CC413E"/>
<path d="M142.18 33.0361V74.3369H153.729V30.7632C149.134 30.7632 145.726 31.1656 142.18 33.0361Z" fill="#212121"/>
</svg>
